HIERARCHY
ROOT Hips
{
	OFFSET 0.000000 0.000000 0.000000
	CHANNELS 6 Xposition Yposition Zposition Xrotation Yrotation Zrotation
	JOINT LeftUpLeg_virtual
	{
		OFFSET 0.000000 0.000000 0.000000
		CHANNELS 3 Xrotation Yrotation Zrotation
		JOINT LeftUpLeg
		{
			OFFSET 13.026900 -6.336304 -1.092800
			CHANNELS 3 Xrotation Yrotation Zrotation
			JOINT LeftLeg
			{
				OFFSET 0.524474 -46.096886 9.782700
				CHANNELS 3 Xrotation Yrotation Zrotation
				JOINT LeftFoot
				{
					OFFSET -0.524474 -53.427422 -12.948200
					CHANNELS 3 Xrotation Yrotation Zrotation
					JOINT LeftToeBase
					{
						OFFSET 0.192200 -14.009700 16.364100
						CHANNELS 3 Xrotation Yrotation Zrotation
						JOINT LeftToe_End
						{
							OFFSET -1.784700 -0.561700 9.474800
							CHANNELS 3 Xrotation Yrotation Zrotation
							End Site
							{
								OFFSET 0 0 0
							}
						}
					}
				}
			}
		}
	}
	JOINT RightUpLeg_virtual
	{
		OFFSET 0.000000 0.000000 0.000000
		CHANNELS 3 Xrotation Yrotation Zrotation
		JOINT RightUpLeg
		{
			OFFSET -12.883000 -6.336304 -1.092800
			CHANNELS 3 Xrotation Yrotation Zrotation
			JOINT RightLeg
			{
				OFFSET -0.524587 -46.096825 9.782800
				CHANNELS 3 Xrotation Yrotation Zrotation
				JOINT RightFoot
				{
					OFFSET 0.524587 -53.427383 -12.948300
					CHANNELS 3 Xrotation Yrotation Zrotation
					JOINT RightToeBase
					{
						OFFSET -0.192200 -14.009700 16.364100
						CHANNELS 3 Xrotation Yrotation Zrotation
						JOINT RightToe_End
						{
							OFFSET 1.784700 -0.561700 9.474800
							CHANNELS 3 Xrotation Yrotation Zrotation
							End Site
							{
								OFFSET 0 0 0
							}
						}
					}
				}
			}
		}
	}
	JOINT Spine_virtual
	{
		OFFSET 0.000000 0.000000 0.000000
		CHANNELS 3 Xrotation Yrotation Zrotation
		JOINT Spine
		{
			OFFSET 0.072000 7.257294 -0.789700
			CHANNELS 3 Xrotation Yrotation Zrotation
			JOINT Spine1
			{
				OFFSET 0.000000 12.508769 -0.658067
				CHANNELS 3 Xrotation Yrotation Zrotation
				JOINT Spine1_split
				{
					OFFSET 0.000000 12.508769 -0.658067
					CHANNELS 3 Xrotation Yrotation Zrotation
					JOINT Spine2
					{
						OFFSET 0.000000 12.508769 -0.658067
						CHANNELS 3 Xrotation Yrotation Zrotation
						JOINT Neck_virtual
						{
							OFFSET 0.000000 0.000000 0.000000
							CHANNELS 3 Xrotation Yrotation Zrotation
							JOINT Neck
							{
								OFFSET 0.000000 14.033295 7.520400
								CHANNELS 3 Xrotation Yrotation Zrotation
								JOINT Head
								{
									OFFSET 0.000000 8.198502 5.703100
									CHANNELS 3 Xrotation Yrotation Zrotation
									JOINT HeadTop_End
									{
										OFFSET 0.000000 17.760803 13.332701
										CHANNELS 3 Xrotation Yrotation Zrotation
										End Site
										{
											OFFSET 0 0 0
										}
									}
								}
							}
						}
						JOINT LeftShoulder_virtual
						{
							OFFSET 0.000000 0.000000 0.000000
							CHANNELS 3 Xrotation Yrotation Zrotation
							JOINT LeftShoulder
							{
								OFFSET 6.292450 5.785301 -0.669000
								CHANNELS 3 Xrotation Yrotation Zrotation
								JOINT LeftShoulder_split
								{
									OFFSET 6.292450 5.785301 -0.669000
									CHANNELS 3 Xrotation Yrotation Zrotation
									JOINT LeftArm
									{
										OFFSET 13.907140 -6.093903 1.965100
										CHANNELS 3 Xrotation Yrotation Zrotation
										JOINT LeftForeArm
										{
											OFFSET 34.140198 0.000000 0.000000
											CHANNELS 3 Xrotation Yrotation Zrotation
											JOINT LeftHand
											{
												OFFSET 40.960209 0.000000 0.000000
												CHANNELS 3 Xrotation Yrotation Zrotation
												End Site
												{
													OFFSET 0 0 0
												}
											}
										}
									}
								}
							}
						}
						JOINT RightShoulder_virtual
						{
							OFFSET 0.000000 0.000000 0.000000
							CHANNELS 3 Xrotation Yrotation Zrotation
							JOINT RightShoulder
							{
								OFFSET -6.292450 5.785301 -0.669000
								CHANNELS 3 Xrotation Yrotation Zrotation
								JOINT RightShoulder_split
								{
									OFFSET -6.292450 5.785301 -0.669000
									CHANNELS 3 Xrotation Yrotation Zrotation
									JOINT RightArm
									{
										OFFSET -13.907140 -6.093903 1.965100
										CHANNELS 3 Xrotation Yrotation Zrotation
										JOINT RightForeArm
										{
											OFFSET -34.140198 0.000000 0.000000
											CHANNELS 3 Xrotation Yrotation Zrotation
											JOINT RightHand
											{
												OFFSET -40.960209 0.000000 0.000000
												CHANNELS 3 Xrotation Yrotation Zrotation
												End Site
												{
													OFFSET 0 0 0
												}
											}
										}
									}
								}
							}
						}
					}
				}
			}
		}
	}
}
MOTION
Frames: 4
Frame Time: 0.03333333
-0.043523 92.905884 0.617432 0.000000 0.000000 0.000000 -7.698767 -51.694464 -1.550185 -33.048120 11.833752 19.749458 57.027729 -3.613459 3.923484 -20.811706 -7.895527 -15.052342 -2.769940 0.133376 0.588579 0.000000 0.000000 0.000000 -8.418035 -48.628058 -0.864983 -22.467340 -7.518214 -29.146476 55.240084 -5.665514 -8.163866 -19.036186 -5.541710 24.773986 -0.913769 0.665027 0.611413 0.000000 0.000000 0.000000 -7.095683 -47.743562 -0.620056 10.942206 8.355720 -0.996133 1.531535 1.712426 -0.797415 0.741432 0.870827 0.387513 0.000000 0.000000 0.000000 2.172406 0.923633 -0.639078 -1.492284 10.594205 3.105593 8.936681 20.259461 -4.576311 0.000000 0.000000 0.000000 2.644046 0.851596 -0.859087 0.705366 1.378195 -5.348704 -1.490335 -1.153819 -1.732983 -53.185710 2.892644 -50.242776 -172.165833 -75.202391 -168.080683 0.000000 0.000000 0.000000 3.283319 1.223355 -0.802897 2.300402 11.421726 -7.118696 0.516246 -0.027668 1.620587 -53.418974 30.221565 85.664554 -179.089022 70.168692 177.401241 0.000000 0.000000 0.000000 
-0.001141 93.063507 0.821209 0.000000 0.000000 0.000000 -7.443683 -51.705748 -1.290559 -32.693568 11.591085 19.555750 57.236446 -3.824492 4.003594 -20.413344 -7.570744 -14.813596 -2.958025 0.103292 0.544220 0.000000 0.000000 0.000000 -8.564078 -48.481345 -0.795617 -22.234702 -8.073551 -29.139267 54.980697 -5.991424 -7.998052 -19.480174 -5.817519 24.204435 -0.419258 0.701918 0.465564 0.000000 0.000000 0.000000 -7.081420 -47.639033 -0.690234 10.875366 8.379145 -1.155143 1.492390 1.603097 -0.765635 0.886622 1.507643 0.673549 0.000000 0.000000 0.000000 2.031894 0.909955 -0.625360 -1.688820 11.056434 2.993395 8.514385 20.530898 -4.523441 0.000000 0.000000 0.000000 2.676259 0.795595 -0.764809 0.702381 0.782961 -5.620977 -0.729432 -1.199278 -0.620121 -53.835476 4.190602 -50.490022 -176.749614 -75.510706 -172.899204 0.000000 0.000000 0.000000 3.243718 1.177301 -0.731393 2.264311 11.696932 -7.029074 0.514750 -0.529061 1.251954 -53.595542 30.130317 85.204267 -179.215544 69.879945 177.579085 0.000000 0.000000 0.000000 
-0.031995 93.387268 0.918060 0.000000 0.000000 0.000000 -7.203106 -51.658927 -1.004886 -32.154048 11.487077 19.545432 57.156782 -4.511864 3.911357 -20.122156 -7.239028 -14.580108 -3.161802 0.039514 0.456793 0.000000 0.000000 0.000000 -8.633471 -48.515636 -0.690110 -21.850298 -8.831832 -29.041336 54.205037 -6.141134 -7.791638 -19.907795 -6.097160 23.385173 -0.600595 0.749381 0.216365 0.000000 0.000000 0.000000 -6.858775 -47.843508 -0.633944 10.706322 8.434147 -1.357987 1.457732 1.501383 -0.800629 0.629965 1.481762 0.633346 0.000000 0.000000 0.000000 1.880331 0.979859 -0.687858 -1.862504 11.779129 3.040968 8.158766 21.071058 -4.077608 0.000000 0.000000 0.000000 2.773073 0.833201 -0.719308 0.603589 -0.157424 -5.868817 -0.043864 -0.081653 1.019080 -55.028444 6.381215 -49.991022 179.496060 -74.227477 -176.952361 0.000000 0.000000 0.000000 3.101807 1.227223 -0.719441 2.254610 11.972427 -6.486887 0.329423 -1.059649 0.887526 -54.081882 30.785575 84.572379 -179.570004 69.589348 177.995987 0.000000 0.000000 0.000000 
-0.014469 93.817070 1.054237 0.000000 0.000000 0.000000 -7.023583 -51.836170 -0.814008 -31.485372 11.801914 19.776022 56.748002 -5.430343 3.580151 -20.043994 -6.747802 -14.337260 -3.295606 -0.051563 0.338879 0.000000 0.000000 0.000000 -8.525049 -49.052554 -0.574439 -21.492493 -9.602527 -28.829064 53.033769 -5.998885 -7.596307 -19.968038 -6.296204 22.395166 -1.456915 0.772949 0.006420 0.000000 0.000000 0.000000 -6.468525 -48.673373 -0.401300 10.389607 8.519276 -1.557349 1.428848 1.482612 -0.904405 0.275062 1.173552 0.501488 0.000000 0.000000 0.000000 1.737278 1.156041 -0.802214 -2.006344 12.526410 3.229891 7.963158 22.122300 -3.472835 0.000000 0.000000 0.000000 2.793418 0.993947 -0.772127 0.490996 -1.042460 -5.855833 0.514640 1.447903 2.429103 -55.889027 8.426964 -49.164907 178.447872 -72.211594 -178.458759 0.000000 0.000000 0.000000 2.910214 1.381270 -0.811232 2.236753 12.194053 -5.561708 0.177633 -1.163810 0.528731 -54.856166 32.205124 84.025178 -179.944749 69.304229 178.441192 0.000000 0.000000 0.000000 
